# xmcd
#
# Track frame offsets: 
#        150
#        6814
#        21253
#        36286
#        49791
#        64490
#        80516
#        99558
#        114157
#        129771
#        150445
#
# Disc length: 2230 seconds
#
# Revision: 0
# Processed by: cddbd v1.5.2PL0 Copyright (c) Steve Scherf et al.
# Submitted via: ExactAudioCopyFreeDBPlugin 1.0
#
DISCID=8008b40b
DTITLE=Bob Rice - Nowhere Else To Go
DYEAR=2006
DGENRE=Country
TTITLE0=On That Great And Terrible Day
TTITLE1=Come All Ye Sinners
TTITLE2=It Wouldn't Be Enough
TTITLE3=My Things Need More Things
TTITLE4=You Did Not Have A Home
TTITLE5=Nowhere Else To Go
TTITLE6=Sleep Of Adam
TTITLE7=The Man Of Galilee
TTITLE8=Your Love Is Better Than Life
TTITLE9=In The Land Of My Exile
TTITLE10=Let Nothing Trouble You
EXTD=
EXTT0=
EXTT1=
EXTT2=
EXTT3=
EXTT4=
EXTT5=
EXTT6=
EXTT7=
EXTT8=
EXTT9=
EXTT10=
PLAYORDER=
